<?xml version="1.0" encoding="UTF-8" standalone="no"?>
<!-- Created with Inkscape (http://www.inkscape.org/) -->

<svg
   width="210mm"
   height="260mm"
   viewBox="0 0 210 260"
   version="1.1"
   id="svg5"
   inkscape:version="1.1.1 (3bf5ae0d25, 2021-09-20)"
   sodipodi:docname="pitch.svg"
   xmlns:inkscape="http://www.inkscape.org/namespaces/inkscape"
   xmlns:sodipodi="http://sodipodi.sourceforge.net/DTD/sodipodi-0.dtd"
   xmlns="http://www.w3.org/2000/svg"
   xmlns:svg="http://www.w3.org/2000/svg">
  <sodipodi:namedview
     id="namedview7"
     pagecolor="#505050"
     bordercolor="#eeeeee"
     borderopacity="1"
     inkscape:pageshadow="0"
     inkscape:pageopacity="0"
     inkscape:pagecheckerboard="0"
     inkscape:document-units="mm"
     showgrid="false"
     showborder="true"
     inkscape:zoom="0.81386721"
     inkscape:cx="463.22053"
     inkscape:cy="4.3004558"
     inkscape:window-width="3840"
     inkscape:window-height="1017"
     inkscape:window-x="-8"
     inkscape:window-y="964"
     inkscape:window-maximized="1"
     inkscape:current-layer="layer1" />
  <defs
     id="defs2">
    <clipPath
       clipPathUnits="userSpaceOnUse"
       id="clipPath840">
      <path
         d="M 0,595.28 H 841.89 V 0 H 0 Z"
         id="path838" />
    </clipPath>
    <clipPath
       clipPathUnits="userSpaceOnUse"
       id="clipPath848">
      <path
         d="m 473.112,526.023 h 48.151 V 65.3896 h -48.151 z"
         id="path846" />
    </clipPath>
    <clipPath
       clipPathUnits="userSpaceOnUse"
       id="clipPath864">
      <path
         d="m 376.905,526.084 h 48.202 V 65.3711 h -48.202 z"
         id="path862" />
    </clipPath>
    <clipPath
       clipPathUnits="userSpaceOnUse"
       id="clipPath880">
      <path
         d="m 569.314,525.956 h 48.107 V 65.4043 h -48.107 z"
         id="path878" />
    </clipPath>
    <clipPath
       clipPathUnits="userSpaceOnUse"
       id="clipPath896">
      <path
         d="m 280.694,526.142 h 48.253 V 65.3555 h -48.253 z"
         id="path894" />
    </clipPath>
    <clipPath
       clipPathUnits="userSpaceOnUse"
       id="clipPath912">
      <path
         d="m 665.493,525.895 h 48.13 V 65.4248 h -48.13 z"
         id="path910" />
    </clipPath>
    <clipPath
       clipPathUnits="userSpaceOnUse"
       id="clipPath928">
      <path
         d="m 184.49,526.206 h 48.306 V 65.3379 H 184.49 Z"
         id="path926" />
    </clipPath>
    <clipPath
       clipPathUnits="userSpaceOnUse"
       id="clipPath948">
      <path
         d="M 0,595.28 H 841.89 V 0 H 0 Z"
         id="path946" />
    </clipPath>
  </defs>
  <g
     inkscape:label="Layer 1"
     inkscape:groupmode="layer"
     id="layer1">
    <g
       id="g830"
       inkscape:label="football-field-1428839"
       transform="matrix(0,-0.41303949,-0.41303949,0,226.97679,305.73701)"
       inkscape:export-filename="C:\Users\hieta\g830.png"
       inkscape:export-xdpi="96"
       inkscape:export-ydpi="96">
      <path
         d="M 732.504,50.047 H 117.508 v 491.472 h 614.996 z"
         style="fill:#87b540;fill-opacity:1;fill-rule:nonzero;stroke:none"
         id="path832" />
      <g
         id="g834">
        <g
           id="g836"
           clip-path="url(#clipPath840)">
          <g
             id="g842">
            <g
               id="g844" />
            <g
               id="g856">
              <g
                 clip-path="url(#clipPath848)"
                 opacity="0.399994"
                 id="g854">
                <g
                   transform="translate(473.1133,526.0229)"
                   id="g852">
                  <path
                     d="m 0,0 0.076,-460.633 48.075,0.008 -0.045,460.585 z"
                     style="fill:#e8efdb;fill-opacity:1;fill-rule:nonzero;stroke:none"
                     id="path850" />
                </g>
              </g>
            </g>
          </g>
          <g
             id="g858">
            <g
               id="g860" />
            <g
               id="g872">
              <g
                 clip-path="url(#clipPath864)"
                 opacity="0.399994"
                 id="g870">
                <g
                   transform="translate(376.9038,526.084)"
                   id="g868">
                  <path
                     d="m 0,0 0.126,-460.713 48.077,0.011 -0.1,460.667 z"
                     style="fill:#e8efdb;fill-opacity:1;fill-rule:nonzero;stroke:none"
                     id="path866" />
                </g>
              </g>
            </g>
          </g>
          <g
             id="g874">
            <g
               id="g876" />
            <g
               id="g888">
              <g
                 clip-path="url(#clipPath880)"
                 opacity="0.399994"
                 id="g886">
                <g
                   transform="translate(569.3164,525.9561)"
                   id="g884">
                  <path
                     d="m 0,0 0.021,-460.552 48.085,0.012 V -0.03 Z"
                     style="fill:#e8efdb;fill-opacity:1;fill-rule:nonzero;stroke:none"
                     id="path882" />
                </g>
              </g>
            </g>
          </g>
          <g
             id="g890">
            <g
               id="g892" />
            <g
               id="g904">
              <g
                 clip-path="url(#clipPath896)"
                 opacity="0.399994"
                 id="g902">
                <g
                   transform="translate(280.6929,526.1416)"
                   id="g900">
                  <path
                     d="m 0,0 0.178,-460.786 48.075,0.009 -0.147,460.747 z"
                     style="fill:#e8efdb;fill-opacity:1;fill-rule:nonzero;stroke:none"
                     id="path898" />
                </g>
              </g>
            </g>
          </g>
          <g
             id="g906">
            <g
               id="g908" />
            <g
               id="g920">
              <g
                 clip-path="url(#clipPath912)"
                 opacity="0.399994"
                 id="g918">
                <g
                   transform="translate(665.5215,525.895)"
                   id="g916">
                  <path
                     d="m 0,0 -0.026,-460.47 48.078,0.008 0.052,460.432 z"
                     style="fill:#e8efdb;fill-opacity:1;fill-rule:nonzero;stroke:none"
                     id="path914" />
                </g>
              </g>
            </g>
          </g>
          <g
             id="g922">
            <g
               id="g924" />
            <g
               id="g936">
              <g
                 clip-path="url(#clipPath928)"
                 opacity="0.399994"
                 id="g934">
                <g
                   transform="translate(184.4888,526.2056)"
                   id="g932">
                  <path
                     d="m 0,0 0.229,-460.868 48.078,0.011 -0.203,460.824 z"
                     style="fill:#e8efdb;fill-opacity:1;fill-rule:nonzero;stroke:none"
                     id="path930" />
                </g>
              </g>
            </g>
          </g>
        </g>
      </g>
      <g
         id="g938"
         transform="translate(328.7993,526.1118)">
        <path
           d="m 0,0 0.147,-460.748 48.083,0.007 -0.126,460.713 z m -96.207,0.061 0.203,-460.824 48.076,0.007 -0.178,460.786 z m 192.415,-0.124 0.099,-460.667 48.083,0.008 -0.076,460.633 z m -288.62,0.19 0.252,-460.905 48.078,0.004 -0.229,460.868 z m 481.036,-0.313 v -460.51 l 48.072,0.009 0.026,460.47 z m -96.204,0.058 0.045,-460.586 48.074,0.006 -0.022,460.552 z"
           style="fill:#c3d79f;fill-opacity:1;fill-rule:nonzero;stroke:none"
           id="path940" />
      </g>
      <g
         id="g942">
        <g
           id="g944"
           clip-path="url(#clipPath948)">
          <g
             id="g950"
             transform="translate(137.6768,65.3281)">
            <path
               d="m 0,0 v 93.245 190.719 154.668 22.273 c -0.43,-0.429 -0.86,-0.859 -1.29,-1.289 h 78.142 177.543 191.625 120.376 9.547 c -0.429,0.43 -0.859,0.86 -1.289,1.289 V 367.66 176.94 22.273 0 l 1.289,1.289 H 497.802 320.257 128.634 8.258 -1.29 c -1.663,0 -1.663,-2.578 0,-2.578 h 78.142 177.543 191.625 120.376 9.547 c 0.703,0 1.289,0.586 1.289,1.289 v 93.245 190.719 154.668 22.273 c 0,0.703 -0.586,1.29 -1.289,1.29 H 497.802 320.257 128.634 8.258 -1.29 c -0.702,0 -1.289,-0.587 -1.289,-1.29 V 367.66 176.94 22.273 0 C -2.579,-1.663 0,-1.663 0,0"
               style="fill:#ffffff;fill-opacity:1;fill-rule:nonzero;stroke:none"
               id="path952" />
          </g>
          <g
             id="g954"
             transform="translate(426.293,65.3281)">
            <path
               d="m 0,0 v 93.245 190.719 154.668 22.273 c 0,1.663 -2.579,1.663 -2.579,0 V 367.66 176.94 22.273 0 C -2.579,-1.663 0,-1.663 0,0"
               style="fill:#ffffff;fill-opacity:1;fill-rule:nonzero;stroke:none"
               id="path956" />
          </g>
          <g
             id="g958"
             transform="translate(681.1162,239.4902)">
            <path
               d="m 0,0 v 112.581 c -0.43,-0.43 -0.859,-0.859 -1.289,-1.289 h 33.793 c -0.43,0.43 -0.859,0.859 -1.289,1.289 V 0 l 1.289,1.289 H -1.289 c -1.663,0 -1.663,-2.578 0,-2.578 h 33.793 c 0.703,0 1.289,0.586 1.289,1.289 v 112.581 c 0,0.703 -0.586,1.29 -1.289,1.29 H -1.289 c -0.703,0 -1.289,-0.587 -1.289,-1.29 V 0 C -2.578,-1.663 0,-1.663 0,0"
               style="fill:#ffffff;fill-opacity:1;fill-rule:nonzero;stroke:none"
               id="path960" />
          </g>
          <g
             id="g962"
             transform="translate(613.5137,171.8887)">
            <path
               d="m 0,0 v 137.853 109.93 c -0.43,-0.43 -0.859,-0.86 -1.289,-1.29 h 101.395 c -0.429,0.43 -0.859,0.86 -1.289,1.29 V 109.93 0 l 1.289,1.289 H -1.289 c -1.663,0 -1.663,-2.578 0,-2.578 h 101.395 c 0.704,0 1.29,0.586 1.29,1.289 v 137.853 109.93 c 0,0.702 -0.586,1.289 -1.29,1.289 H -1.289 c -0.703,0 -1.289,-0.587 -1.289,-1.289 V 109.93 0 C -2.578,-1.663 0,-1.663 0,0"
               style="fill:#ffffff;fill-opacity:1;fill-rule:nonzero;stroke:none"
               id="path964" />
          </g>
          <g
             id="g966"
             transform="translate(643.2812,295.7803)">
            <path
               d="M 0,0 C 0,1.516 1.228,2.744 2.743,2.744 4.258,2.744 5.487,1.516 5.487,0 5.487,-1.514 4.258,-2.743 2.743,-2.743 1.228,-2.743 0,-1.514 0,0"
               style="fill:#ffffff;fill-opacity:1;fill-rule:nonzero;stroke:none"
               id="path968" />
          </g>
          <g
             id="g970"
             transform="translate(643.2812,295.7803)">
            <path
               d="M 0,0 C 0,1.516 1.228,2.744 2.743,2.744 4.258,2.744 5.487,1.516 5.487,0 5.487,-1.514 4.258,-2.743 2.743,-2.743 1.228,-2.743 0,-1.514 0,0 Z"
               style="fill:none;stroke:#ffffff;stroke-width:1.097;stroke-linecap:butt;stroke-linejoin:miter;stroke-miterlimit:4;stroke-dasharray:none;stroke-opacity:1"
               id="path972" />
          </g>
          <g
             id="g974"
             transform="translate(705.3906,64.0391)">
            <path
               d="m 0,0 h 8.229 c 0.704,0 1.29,0.586 1.29,1.289 v 8.23 c 0,0.703 -0.586,1.289 -1.29,1.289 -5.283,0 -9.378,-4.343 -9.518,-9.519 -0.045,-1.664 2.533,-1.659 2.578,0 0.103,3.783 3.077,6.94 6.94,6.94 L 6.94,9.519 V 1.289 L 8.229,2.578 H 0 C -1.663,2.578 -1.663,0 0,0"
               style="fill:#ffffff;fill-opacity:1;fill-rule:nonzero;stroke:none"
               id="path976" />
          </g>
          <g
             id="g978"
             transform="translate(713.6191,516.7109)">
            <path
               d="M 0,0 H 0.001 C 0.704,0 1.29,0.587 1.29,1.29 v 8.232 c 0,0.703 -0.586,1.29 -1.289,1.29 h -8.23 c -0.688,0 -1.308,-0.587 -1.289,-1.29 C -9.375,4.24 -5.283,0.143 0,0 1.664,-0.045 1.659,2.534 0,2.579 -3.862,2.683 -6.835,5.661 -6.939,9.522 -7.369,9.093 -7.799,8.663 -8.229,8.233 h 8.23 c -0.43,0.43 -0.859,0.86 -1.289,1.289 V 1.29 c 0.43,0.429 0.859,0.859 1.289,1.289 L 0,2.579 C -1.663,2.579 -1.663,0 0,0"
               style="fill:#ffffff;fill-opacity:1;fill-rule:nonzero;stroke:none"
               id="path980" />
          </g>
          <g
             id="g982"
             transform="translate(136.4077,74.8467)">
            <path
               d="M 0,0 H -0.021 C -0.723,0 -1.31,-0.586 -1.31,-1.289 v -8.23 c 0,-0.703 0.587,-1.289 1.289,-1.289 h 8.255 c 0.689,0 1.308,0.586 1.29,1.289 C 9.381,-4.233 5.284,-0.143 0,0 c -1.664,0.045 -1.66,-2.533 0,-2.578 3.863,-0.105 6.841,-3.075 6.945,-6.941 0.43,0.43 0.86,0.86 1.289,1.29 h -8.255 c 0.43,-0.43 0.86,-0.86 1.29,-1.29 v 8.23 c -0.43,-0.43 -0.86,-0.859 -1.29,-1.289 H 0 C 1.663,-2.578 1.663,0 0,0"
               style="fill:#ffffff;fill-opacity:1;fill-rule:nonzero;stroke:none"
               id="path984" />
          </g>
          <g
             id="g986"
             transform="translate(136.3872,516.7109)">
            <path
               d="m 0,0 c 5.294,0 9.404,4.328 9.544,9.522 0.019,0.703 -0.601,1.29 -1.289,1.29 H 0 c -0.703,0 -1.29,-0.587 -1.29,-1.29 V 1.29 c 0,-1.664 2.58,-1.664 2.58,0 V 9.522 C 0.859,9.093 0.43,8.663 0,8.233 H 8.255 C 7.825,8.663 7.396,9.093 6.965,9.522 6.863,5.72 3.874,2.579 0,2.579 -1.663,2.579 -1.663,0 0,0"
               style="fill:#ffffff;fill-opacity:1;fill-rule:nonzero;stroke:none"
               id="path988" />
          </g>
          <g
             id="g990"
             transform="translate(422.2617,295.7803)">
            <path
               d="M 0,0 C 0,1.516 1.226,2.744 2.742,2.744 4.26,2.744 5.485,1.516 5.485,0 5.485,-1.516 4.26,-2.743 2.742,-2.743 1.226,-2.743 0,-1.516 0,0"
               style="fill:#ffffff;fill-opacity:1;fill-rule:nonzero;stroke:none"
               id="path992" />
          </g>
          <g
             id="g994"
             transform="translate(422.2617,295.7803)">
            <path
               d="M 0,0 C 0,1.516 1.226,2.744 2.742,2.744 4.26,2.744 5.485,1.516 5.485,0 5.485,-1.516 4.26,-2.743 2.742,-2.743 1.226,-2.743 0,-1.516 0,0 Z"
               style="fill:none;stroke:#ffffff;stroke-width:1.097;stroke-linecap:butt;stroke-linejoin:miter;stroke-miterlimit:4;stroke-dasharray:none;stroke-opacity:1"
               id="path996" />
          </g>
          <g
             id="g998"
             transform="translate(370.0591,295.7803)">
            <path
               d="M 0,0 C 0.303,24.695 16.593,46.139 40.34,52.98 64.196,59.853 89.786,48.677 102.389,27.73 115.213,6.417 110.917,-21.331 93.798,-38.851 76.43,-56.624 48.516,-59.587 27.215,-47.442 10.295,-37.796 0.236,-19.258 0,0 -0.021,1.662 -2.599,1.664 -2.579,0 -2.316,-21.424 9.352,-40.771 28.219,-50.948 47.208,-61.191 70.905,-59.062 88.382,-46.805 105.431,-34.849 114.796,-13.327 112,7.291 109.133,28.414 95.1,45.986 75.326,53.8 57.563,60.819 36.979,57.652 21.509,46.803 6.326,36.155 -2.354,18.377 -2.579,0 -2.599,-1.664 -0.021,-1.662 0,0"
               style="fill:#ffffff;fill-opacity:1;fill-rule:nonzero;stroke:none"
               id="path1000" />
          </g>
          <g
             id="g1002"
             transform="translate(588.5029,295.7803)">
            <path
               d="m 0,0 c 0.248,-18.108 8.474,-34.757 22.81,-45.85 0.841,-0.65 2.201,-0.32 2.201,0.912 v 89.875 c 0,1.232 -1.36,1.563 -2.201,0.912 C 8.473,34.757 0.248,18.109 0,0 c -0.023,-1.664 2.556,-1.662 2.578,0 0.239,17.491 8.234,33.333 22.056,44.025 -0.735,0.304 -1.468,0.608 -2.201,0.912 v -89.875 c 0.733,0.304 1.466,0.608 2.201,0.913 C 10.813,-33.332 2.817,-17.491 2.578,0 2.556,1.662 -0.023,1.664 0,0"
               style="fill:#ffffff;fill-opacity:1;fill-rule:nonzero;stroke:none"
               id="path1004" />
          </g>
          <g
             id="g1006"
             transform="translate(168.8965,352.0713)">
            <path
               d="m 0,0 v -112.582 c 0.43,0.43 0.86,0.859 1.29,1.289 h -33.799 c 0.429,-0.43 0.859,-0.859 1.289,-1.289 V 0 c -0.43,-0.43 -0.86,-0.859 -1.289,-1.29 H 1.29 c 1.663,0 1.663,2.58 0,2.58 h -33.799 c -0.703,0 -1.29,-0.587 -1.29,-1.29 v -112.582 c 0,-0.703 0.587,-1.289 1.29,-1.289 H 1.29 c 0.702,0 1.289,0.586 1.289,1.289 L 2.579,0 C 2.579,1.663 0,1.663 0,0"
               style="fill:#ffffff;fill-opacity:1;fill-rule:nonzero;stroke:none"
               id="path1008" />
          </g>
          <g
             id="g1010"
             transform="translate(236.4971,419.6714)">
            <path
               d="m 0,0 v -137.853 -109.93 c 0.43,0.43 0.86,0.86 1.29,1.289 h -101.4 c 0.43,-0.429 0.86,-0.859 1.29,-1.289 V -109.93 0 c -0.43,-0.43 -0.86,-0.859 -1.29,-1.29 H 1.29 c 1.663,0 1.663,2.58 0,2.58 h -101.4 c -0.703,0 -1.289,-0.587 -1.289,-1.29 v -137.853 -109.93 c 0,-0.703 0.586,-1.289 1.289,-1.289 H 1.29 c 0.702,0 1.289,0.586 1.289,1.289 V -109.93 0 C 2.579,1.663 0,1.663 0,0"
               style="fill:#ffffff;fill-opacity:1;fill-rule:nonzero;stroke:none"
               id="path1012" />
          </g>
          <g
             id="g1014"
             transform="translate(206.73,295.7803)">
            <path
               d="m 0,0 c 0,-1.516 -1.229,-2.743 -2.744,-2.743 -1.514,0 -2.743,1.227 -2.743,2.743 0,1.516 1.229,2.744 2.743,2.744 C -1.229,2.744 0,1.516 0,0"
               style="fill:#ffffff;fill-opacity:1;fill-rule:nonzero;stroke:none"
               id="path1016" />
          </g>
          <g
             id="g1018"
             transform="translate(206.73,295.7803)">
            <path
               d="m 0,0 c 0,-1.516 -1.229,-2.743 -2.744,-2.743 -1.514,0 -2.743,1.227 -2.743,2.743 0,1.516 1.229,2.744 2.743,2.744 C -1.229,2.744 0,1.516 0,0 Z"
               style="fill:none;stroke:#ffffff;stroke-width:1.097;stroke-linecap:butt;stroke-linejoin:miter;stroke-miterlimit:4;stroke-dasharray:none;stroke-opacity:1"
               id="path1020" />
          </g>
          <g
             id="g1022"
             transform="translate(261.5078,295.7803)">
            <path
               d="m 0,0 c -0.248,18.108 -8.473,34.756 -22.81,45.849 -0.841,0.651 -2.201,0.32 -2.201,-0.912 v -89.875 c 0,-1.232 1.36,-1.562 2.201,-0.912 C -8.473,-34.757 -0.248,-18.108 0,0 c 0.022,1.664 -2.556,1.662 -2.579,0 -0.239,-17.491 -8.234,-33.332 -22.054,-44.025 0.734,-0.305 1.467,-0.609 2.201,-0.913 v 89.875 c -0.734,-0.304 -1.467,-0.608 -2.201,-0.912 C -10.812,33.333 -2.818,17.491 -2.579,0 -2.556,-1.662 0.022,-1.664 0,0"
               style="fill:#ffffff;fill-opacity:1;fill-rule:nonzero;stroke:none"
               id="path1024" />
          </g>
        </g>
      </g>
    </g>
  </g>
</svg>
